<svg xmlns="http://www.w3.org/2000/svg" width="735" height="231.03290688803403" viewBox="0 0 370.02 116.31" class="looka-1j8o68f"><defs id="SvgjsDefs6923"></defs><g id="SvgjsG6924" featurekey="symbolFeature-0" transform="matrix(1.4218603654594477,0,0,1.4218603654594477,-27.206370920173498,-14.787909994942074)" fill="#000000"><g xmlns="http://www.w3.org/2000/svg"><path d="M54.2,60.6c-2.2,0-4.4-0.5-6.6-1.6c-4.9-2.4-7.8-6.8-7.6-11.4c0.6-10.3,8.7-17.1,16-17.1c4.7,0,13.9-3.5,14.8-10.2   c0.4-3.3-1.5-6-3.7-6.9c-0.8-0.3-1.1-1.2-0.8-2c0.3-0.8,1.2-1.1,2-0.8c3.1,1.3,6.1,5,5.5,10.1c-0.7,5-4.4,8.1-7.4,9.8   c-3.2,1.8-7.3,3-10.4,3c-5.8,0-12.5,5.9-13,14.3c-0.2,4.1,2.9,7.1,5.9,8.5c4,1.9,8.3,1.6,11-0.8c0.6-0.5,1.6-0.5,2.1,0.1   c0.5,0.6,0.5,1.6-0.1,2.1C59.8,59.6,57.1,60.6,54.2,60.6z"></path><path d="M57.1,92.1H49c-0.8,0-1.5-0.7-1.5-1.5v-7.3c0-2.3-1.9-4.2-4.2-4.2c-4.2,0-7.6,3.4-7.6,7.6v4c0,0.8-0.7,1.5-1.5,1.5H20.9   c-0.8,0-1.4-0.6-1.5-1.3c0-0.4-4.3-36.7,21.7-41c0.8-0.1,1.6,0.4,1.7,1.2c0.1,0.8-0.4,1.6-1.2,1.7c-20.5,3.5-19.8,30.1-19.3,36.4   h10.4v-2.5c0-5.8,4.7-10.6,10.6-10.6c4,0,7.2,3.2,7.2,7.2v5.8h5.9c3.2-4.4,22.8-32.6,22.2-54.6c-0.5-15-7.6-19.7-11.7-21.2   c-0.8-0.3-1.2-1.1-0.9-1.9c0.3-0.8,1.1-1.2,1.9-0.9c4.9,1.7,13.3,7.1,13.8,23.9c0.3,10.5-3.5,23.3-11.3,38   c-5.8,10.9-11.8,18.9-11.8,19C58,91.8,57.6,92.1,57.1,92.1z M57.1,90.6L57.1,90.6L57.1,90.6z"></path><path d="M61.5,41.7c0.5-0.1,0.8-0.6,0.7-1.1c-0.2-1,0.4-2.1,1.4-2.3c1-0.2,2.1,0.4,2.3,1.4c0.1,0.5,0.6,0.8,1.1,0.7   c0.5-0.1,0.8-0.6,0.7-1.1c-0.5-2.1-2.5-3.4-4.6-2.9c-2.1,0.5-3.4,2.5-2.9,4.6C60.5,41.5,61,41.8,61.5,41.7z"></path></g></g><g id="SvgjsG6925" featurekey="nameFeature-0" transform="matrix(0.839012999137298,0,0,0.839012999137298,105.30834272378138,27.213960392191666)" fill="#000000"><path d="M8.68 40 l-4.28 0 l0 -29.84 l4.28 0 l0 29.84 z M19.346 14.36 l-3.48 -4.2 l5.64 0 l19.16 22.8 l0 -22.8 l4.4 0 l0 29.84 l-4.32 0 l-17.12 -20.52 l0 20.52 l-4.28 0 l0 -25.64 z M60.812 14.559999999999999 l0 21.08 l6.76 0 q2.8 0 5.04 -1.44 q2.12 -1.4 3.32 -3.76 t1.2 -5.16 q0 -2.92 -1.14 -5.36 t-3.26 -3.88 q-2.28 -1.48 -5.24 -1.48 l-6.68 0 z M54.172 14.559999999999999 l-1.92 -4.4 l15.2 0 q3.96 0 7.24 2.04 q3.16 1.96 5 5.36 t1.84 7.4 q0 3 -1.18 5.94 t-3.26 5.14 q-2 2.16 -4.28 3.08 q-2.2 0.88 -5.24 0.88 l-11.04 0 l0 -25.44 l-2.36 0 z M93.59800000000001 40 l-4.28 0 l0 -29.84 l4.28 0 l0 29.84 z M112.70400000000001 13.32 l-1.64 -3.68 l4.8 0 l14.36 30.36 l-4.88 0 l-1.96 -4.36 l-9.08 0 q-2.56 0 -4.6 0.48 q-1.8 0.44 -3 1.16 q-1.08 0.64 -1.44 1.32 l-0.76 1.4 l-4.72 0 z M115.90400000000001 31.240000000000002 l5.52 0 l-6.52 -12.6 l-6.6 14.28 q0.88 -0.76 2.68 -1.2 q2.04 -0.48 4.92 -0.48 z M137.69 14.36 l-3.48 -4.2 l5.64 0 l19.16 22.8 l0 -22.8 l4.4 0 l0 29.84 l-4.32 0 l-17.12 -20.52 l0 20.52 l-4.28 0 l0 -25.64 z M194.11599999999999 40 l-20.92 0 l0 -29.84 l4.36 0 l0 25.48 l16.56 0 l0 4.36 z M204.582 40 l-4.28 0 l0 -29.84 l4.28 0 l0 29.84 z M215.248 14.36 l-3.48 -4.2 l5.64 0 l19.16 22.8 l0 -22.8 l4.4 0 l0 29.84 l-4.32 0 l-17.12 -20.52 l0 20.52 l-4.28 0 l0 -25.64 z M276.31399999999996 14 l-2.8 3.28 q-1.64 -1.68 -3.92 -2.64 t-4.8 -0.96 q-3.28 0 -5.98 1.48 t-4.22 4.04 q-1.56 2.68 -1.56 5.96 q0 3.12 1.68 5.76 q1.6 2.48 4.3 3.94 t5.82 1.46 q2.2 0 4.22 -0.76 t3.62 -2.12 l0 -5.44 l-3.84 0 l-1.88 -4.32 l10.04 0 l0 11.6 q-2.28 2.56 -5.46 3.98 t-6.74 1.42 q-4.44 0 -8.16 -2.16 q-3.64 -2.08 -5.72 -5.72 q-2.16 -3.72 -2.16 -8.16 q0 -4.28 2.28 -7.88 q2.16 -3.44 5.86 -5.46 t7.94 -2.02 q3.32 0 6.32 1.28 q2.92 1.2 5.16 3.44 z M311.17999999999995 24.880000000000003 q0 -3.2 -1.64 -5.8 q-1.56 -2.52 -4.26 -3.96 t-5.86 -1.44 q-3.28 0 -5.98 1.48 t-4.22 4.04 q-1.56 2.68 -1.56 5.96 q0 3.12 1.68 5.76 q1.6 2.48 4.3 3.94 t5.84 1.46 t5.84 -1.52 t4.26 -4.08 q1.6 -2.68 1.6 -5.84 z M315.49999999999994 25.119999999999997 q0 4.32 -2.24 7.96 q-2.16 3.48 -5.86 5.54 t-7.98 2.06 q-4.44 0 -8.16 -2.16 q-3.64 -2.08 -5.72 -5.72 q-2.16 -3.72 -2.16 -8.16 q0 -4.28 2.28 -7.88 q2.16 -3.44 5.86 -5.46 t7.94 -2.02 q4.36 0 8.08 2.12 q3.64 2.08 5.76 5.64 q2.2 3.72 2.2 8.08 z"></path></g><g id="SvgjsG6926" featurekey="sloganFeature-0" transform="matrix(0.7478486911849116,0,0,0.7478486911849116,133.85339854586243,66.74226572957355)" fill="#000000"><path d="M7.0508 20.19531 c-3.0957 0 -5.5176 -1.582 -5.5176 -5.1367 l0 -9.1699 l2.9297 0 l0 8.7695 c0 2.1484 1.1426 2.9492 2.5879 2.9492 c1.4551 0 2.6074 -0.81055 2.6074 -2.9492 l0 -8.7695 l2.9297 0 l0 9.1699 c0 3.5547 -2.4316 5.1367 -5.5371 5.1367 z M25.58609375 5.888999999999999 l2.9199 0 l0 14.111 l-3.3887 0 l-6.25 -10.088 l0 10.088 l-2.9199 0 l0 -14.111 l3.3496 0 l6.2891 10.029 l0 -10.029 z M32.15823125 20 l0 -14.111 l2.9297 0 l0 14.111 l-2.9297 0 z M46.914296875 5.888999999999999 l0 2.5781 l-3.3496 0 l0 11.533 l-2.9004 0 l0 -11.533 l-3.3691 0 l0 -2.5781 l9.6191 0 z M57.3146875 8.467 l-5.2344 0 l0 3.2031 l4.6387 0 l0 2.5488 l-4.6387 0 l0 3.1934 l5.2344 0 l0 2.5879 l-8.1836 0 l0 -14.111 l8.1836 0 l0 2.5781 z M73.711171875 5.888999999999999 l0 2.5781 l-3.3496 0 l0 11.533 l-2.9004 0 l0 -11.533 l-3.3691 0 l0 -2.5781 l9.6191 0 z M84.8245625 5.888999999999999 l2.9297 0 l0 14.111 l-2.9297 0 l0 -5.8008 l-5.9668 0 l0 5.8008 l-2.9297 0 l0 -14.111 l2.9297 0 l0 5.7617 l5.9668 0 l0 -5.7617 z M98.857378125 20 l-3.6719 -6.2109 l-0.84961 0 l0 6.2109 l-2.9297 0 l0 -14.111 l5.1172 0 c3.1934 0 4.541 1.8848 4.541 4.2188 c0 1.8945 -1.0742 3.125 -2.9883 3.5352 l4.248 6.3574 l-3.4668 0 z M94.335978125 8.32 l0 3.3691 l1.7285 0 c1.5625 0 2.1973 -0.66406 2.1973 -1.6797 c0 -1.0059 -0.63477 -1.6895 -2.1973 -1.6895 l-1.7285 0 z M110.722684375 20.19531 c-4.1504 0 -7.2168 -2.832 -7.2168 -7.2559 c0 -4.4336 3.0664 -7.2461 7.2168 -7.2461 c4.1406 0 7.207 2.8125 7.207 7.2461 c0 4.4238 -3.0664 7.2559 -7.207 7.2559 z M110.722684375 17.5098 c2.4316 0 4.2969 -1.709 4.2969 -4.5703 c0 -2.8516 -1.8652 -4.5508 -4.2969 -4.5508 s-4.2969 1.6992 -4.2969 4.5508 c0 2.8613 1.8652 4.5703 4.2969 4.5703 z M125.849628125 20.19531 c-3.0957 0 -5.5176 -1.582 -5.5176 -5.1367 l0 -9.1699 l2.9297 0 l0 8.7695 c0 2.1484 1.1426 2.9492 2.5879 2.9492 c1.4551 0 2.6074 -0.81055 2.6074 -2.9492 l0 -8.7695 l2.9297 0 l0 9.1699 c0 3.5547 -2.4316 5.1367 -5.5371 5.1367 z M140.849621875 20.19531 c-4.0723 0 -7.0703 -2.8125 -7.0703 -7.2168 c0 -4.4629 3.0664 -7.2852 7.2168 -7.2852 c2.7246 0 4.9805 1.2012 6.2109 3.3203 l-2.5684 1.3672 c-0.74219 -1.4453 -2.0703 -2.1387 -3.6426 -2.1387 c-2.4414 0 -4.2773 1.6797 -4.2773 4.668 c0 2.8809 1.7188 4.7363 4.3848 4.7363 c1.8066 0 3.4668 -0.89844 3.8672 -2.959 l-3.8574 0 l0 -2.3535 l6.6309 0 l0 7.666 l-2.3047 0 l0 -1.9531 c-0.9082 1.3379 -2.4316 2.1484 -4.5898 2.1484 z M159.678078125 5.888999999999999 l2.9297 0 l0 14.111 l-2.9297 0 l0 -5.8008 l-5.9668 0 l0 5.8008 l-2.9297 0 l0 -14.111 l2.9297 0 l0 5.7617 l5.9668 0 l0 -5.7617 z M174.38480625 17.4121 l4.4238 0 l0 2.5879 l-7.3535 0 l0 -14.111 l2.9297 0 l0 11.523 z M190.48875 20 l-1.0254 -2.9102 l-5.9277 0 l-1.0254 2.9102 l-2.998 0 l5.1953 -14.111 l3.584 0 l5.1953 14.111 l-2.998 0 z M184.39455 14.6387 l4.209 0 l-2.0996 -5.9863 z M205.244296875 5.888999999999999 l2.9199 0 l0 14.111 l-3.3887 0 l-6.25 -10.088 l0 10.088 l-2.9199 0 l0 -14.111 l3.3496 0 l6.2891 10.029 l0 -10.029 z M217.919934375 20.19531 c-4.0723 0 -7.0703 -2.8125 -7.0703 -7.2168 c0 -4.4629 3.0664 -7.2852 7.2168 -7.2852 c2.7246 0 4.9805 1.2012 6.2109 3.3203 l-2.5684 1.3672 c-0.74219 -1.4453 -2.0703 -2.1387 -3.6426 -2.1387 c-2.4414 0 -4.2773 1.6797 -4.2773 4.668 c0 2.8809 1.7188 4.7363 4.3848 4.7363 c1.8066 0 3.4668 -0.89844 3.8672 -2.959 l-3.8574 0 l0 -2.3535 l6.6309 0 l0 7.666 l-2.3047 0 l0 -1.9531 c-0.9082 1.3379 -2.4316 2.1484 -4.5898 2.1484 z M233.076190625 20.19531 c-3.0957 0 -5.5176 -1.582 -5.5176 -5.1367 l0 -9.1699 l2.9297 0 l0 8.7695 c0 2.1484 1.1426 2.9492 2.5879 2.9492 c1.4551 0 2.6074 -0.81055 2.6074 -2.9492 l0 -8.7695 l2.9297 0 l0 9.1699 c0 3.5547 -2.4316 5.1367 -5.5371 5.1367 z M251.416484375 20 l-1.0254 -2.9102 l-5.9277 0 l-1.0254 2.9102 l-2.998 0 l5.1953 -14.111 l3.584 0 l5.1953 14.111 l-2.998 0 z M245.322284375 14.6387 l4.209 0 l-2.0996 -5.9863 z M262.63673125 20.19531 c-4.0723 0 -7.0703 -2.8125 -7.0703 -7.2168 c0 -4.4629 3.0664 -7.2852 7.2168 -7.2852 c2.7246 0 4.9805 1.2012 6.2109 3.3203 l-2.5684 1.3672 c-0.74219 -1.4453 -2.0703 -2.1387 -3.6426 -2.1387 c-2.4414 0 -4.2773 1.6797 -4.2773 4.668 c0 2.8809 1.7188 4.7363 4.3848 4.7363 c1.8066 0 3.4668 -0.89844 3.8672 -2.959 l-3.8574 0 l0 -2.3535 l6.6309 0 l0 7.666 l-2.3047 0 l0 -1.9531 c-0.9082 1.3379 -2.4316 2.1484 -4.5898 2.1484 z M280.7521875 8.467 l-5.2344 0 l0 3.2031 l4.6387 0 l0 2.5488 l-4.6387 0 l0 3.1934 l5.2344 0 l0 2.5879 l-8.1836 0 l0 -14.111 l8.1836 0 l0 2.5781 z"></path></g></svg>